<svg id="visual" viewBox="0 0 960 540" width="960" height="540" xmlns="http://www.w3.org/2000/svg" xmlns:xlink="http://www.w3.org/1999/xlink" version="1.1"><rect x="0" y="0" width="960" height="540" fill="#ffffff"></rect><defs><linearGradient id="grad1_0" x1="43.8%" y1="0%" x2="100%" y2="100%"><stop offset="14.444444444444446%" stop-color="#ffffff" stop-opacity="1"></stop><stop offset="85.55555555555554%" stop-color="#ffffff" stop-opacity="1"></stop></linearGradient></defs><defs><linearGradient id="grad2_0" x1="0%" y1="0%" x2="56.3%" y2="100%"><stop offset="14.444444444444446%" stop-color="#ffffff" stop-opacity="1"></stop><stop offset="85.55555555555554%" stop-color="#ffffff" stop-opacity="1"></stop></linearGradient></defs><g transform="translate(960, 0)"><path d="M0 324C-24.3 290.3 -48.6 256.7 -81 249.2C-113.3 241.7 -153.7 260.4 -184.6 254C-215.4 247.6 -236.8 216.1 -257.3 186.9C-277.7 157.7 -297.2 130.9 -308.1 100.1C-319.1 69.4 -321.6 34.7 -324 0L0 0Z" fill="#c43169"></path></g><g transform="translate(0, 540)"><path d="M0 -324C26.3 -299.8 52.7 -275.6 87.8 -270.1C122.8 -264.6 166.7 -277.9 190.4 -262.1C214.2 -246.4 217.9 -201.6 235.4 -171C253 -140.5 284.4 -124.1 301.5 -98C318.6 -71.8 321.3 -35.9 324 0L0 0Z" fill="#c43169"></path></g></svg>