<svg id="visual" viewBox="0 0 450 900" width="450" height="900" xmlns="http://www.w3.org/2000/svg" xmlns:xlink="http://www.w3.org/1999/xlink" version="1.1"><rect x="0" y="0" width="450" height="900" fill="#ffffff"></rect><defs><linearGradient id="grad1_0" x1="0%" y1="0%" x2="100%" y2="100%"><stop offset="30%" stop-color="#ffffff" stop-opacity="1"></stop><stop offset="70%" stop-color="#ffffff" stop-opacity="1"></stop></linearGradient></defs><defs><linearGradient id="grad2_0" x1="0%" y1="0%" x2="100%" y2="100%"><stop offset="30%" stop-color="#ffffff" stop-opacity="1"></stop><stop offset="70%" stop-color="#ffffff" stop-opacity="1"></stop></linearGradient></defs><g transform="translate(450, 0)"><path d="M0 270C-22.7 249.4 -45.3 228.9 -71.7 220.6C-98 212.4 -128.1 216.5 -149.3 205.5C-170.5 194.4 -183 168.2 -201.4 146.4C-219.9 124.5 -244.4 107.1 -256.8 83.4C-269.2 59.8 -269.6 29.9 -270 0L0 0Z" fill="#c43169"></path></g><g transform="translate(0, 900)"><path d="M0 -270C30.9 -271.8 61.9 -273.6 83.4 -256.8C105 -240 117.1 -204.6 131.7 -181.2C146.2 -157.9 163.3 -146.6 181.2 -131.7C199.2 -116.8 218.1 -98.3 233 -75.7C248 -53.2 259 -26.6 270 0L0 0Z" fill="#c43169"></path></g></svg>